<svg width="1835" height="1833" xmlns="http://www.w3.org/2000/svg" xmlns:xlink="http://www.w3.org/1999/xlink" xml:space="preserve" overflow="hidden"><g transform="translate(-1106 -405)"><path d="M2147.5 1638.5C2147.5 1468.4 2292.56 1330.5 2471.5 1330.5 2650.44 1330.5 2795.5 1468.4 2795.5 1638.5 2795.5 1808.6 2650.44 1946.5 2471.5 1946.5 2292.56 1946.5 2147.5 1808.6 2147.5 1638.5Z" stroke="#004880" stroke-width="55" stroke-miterlimit="8" fill="none" fill-rule="evenodd"/><path d="M2241 1624.5C2241 1583.35 2276.15 1550 2319.5 1550 2362.85 1550 2398 1583.35 2398 1624.5 2398 1665.65 2362.85 1699 2319.5 1699 2276.15 1699 2241 1665.65 2241 1624.5Z" stroke="#004880" stroke-width="27.5" stroke-miterlimit="8" fill="#004880" fill-rule="evenodd"/><path d="M1462 1151.15C1462 932.913 1638.91 756 1857.15 756L2513.85 756C2732.09 756 2909 932.913 2909 1151.15L2909 1810.85C2909 2029.09 2732.09 2206 2513.85 2206L1857.15 2206C1638.91 2206 1462 2029.09 1462 1810.85Z" stroke="#004880" stroke-width="64.1667" stroke-miterlimit="8" fill="none" fill-rule="evenodd"/><path d="M1561.5 1569.5C1561.5 1446.89 1666.27 1347.5 1795.5 1347.5 1924.73 1347.5 2029.5 1446.89 2029.5 1569.5 2029.5 1692.11 1924.73 1791.5 1795.5 1791.5 1666.27 1791.5 1561.5 1692.11 1561.5 1569.5Z" stroke="#004880" stroke-width="55" stroke-miterlimit="8" fill="none" fill-rule="evenodd"/><path d="M1663 1549C1663 1519.73 1688.07 1496 1719 1496 1749.93 1496 1775 1519.73 1775 1549 1775 1578.27 1749.93 1602 1719 1602 1688.07 1602 1663 1578.27 1663 1549Z" stroke="#004880" stroke-width="27.5" stroke-miterlimit="8" fill="#004880" fill-rule="evenodd"/><path d="M1138 562C1138 492.964 1196.87 437 1269.5 437 1342.13 437 1401 492.964 1401 562 1401 631.036 1342.13 687 1269.5 687 1196.87 687 1138 631.036 1138 562Z" stroke="#004880" stroke-width="64.1667" stroke-miterlimit="8" fill="none" fill-rule="evenodd"/><path d="M2419.5 1127.5C2587.95 1127.5 2724.5 1189.96 2724.5 1267" stroke="#156082" stroke-width="73.3333" stroke-miterlimit="8" fill="none" fill-rule="evenodd"/><path d="M296 0C459.477-1.88424e-14 592 62.4565 592 139.5" stroke="#156082" stroke-width="55" stroke-miterlimit="8" fill="none" fill-rule="evenodd" transform="matrix(-1 0 0 1 2177.5 1126.5)"/></g></svg>