<svg width="1826" height="1824" xmlns="http://www.w3.org/2000/svg" xmlns:xlink="http://www.w3.org/1999/xlink" xml:space="preserve" overflow="hidden"><g transform="translate(-1111 -410)"><path d="M2126.5 1638.5C2126.5 1468.4 2271.78 1330.5 2451 1330.5 2630.22 1330.5 2775.5 1468.4 2775.5 1638.5 2775.5 1808.6 2630.22 1946.5 2451 1946.5 2271.78 1946.5 2126.5 1808.6 2126.5 1638.5Z" stroke="#004880" stroke-width="55" stroke-miterlimit="8" fill="none" fill-rule="evenodd"/><path d="M2220 1624.5C2220 1583.35 2255.15 1550 2298.5 1550 2341.85 1550 2377 1583.35 2377 1624.5 2377 1665.65 2341.85 1699 2298.5 1699 2255.15 1699 2220 1665.65 2220 1624.5Z" stroke="#004880" stroke-width="27.5" stroke-miterlimit="8" fill="#004880" fill-rule="evenodd"/><path d="M1462.5 1151.65C1462.5 933.414 1639.41 756.5 1857.65 756.5L2514.35 756.5C2732.59 756.5 2909.5 933.414 2909.5 1151.65L2909.5 1811.35C2909.5 2029.59 2732.59 2206.5 2514.35 2206.5L1857.65 2206.5C1639.41 2206.5 1462.5 2029.59 1462.5 1811.35Z" stroke="#004880" stroke-width="55" stroke-miterlimit="8" fill="none" fill-rule="evenodd"/><path d="M1595.5 1569.5C1595.5 1446.89 1700.27 1347.5 1829.5 1347.5 1958.73 1347.5 2063.5 1446.89 2063.5 1569.5 2063.5 1692.11 1958.73 1791.5 1829.5 1791.5 1700.27 1791.5 1595.5 1692.11 1595.5 1569.5Z" stroke="#004880" stroke-width="55" stroke-miterlimit="8" fill="none" fill-rule="evenodd"/><path d="M1697 1549C1697 1519.73 1722.07 1496 1753 1496 1783.93 1496 1809 1519.73 1809 1549 1809 1578.27 1783.93 1602 1753 1602 1722.07 1602 1697 1578.27 1697 1549Z" stroke="#004880" stroke-width="27.5" stroke-miterlimit="8" fill="#004880" fill-rule="evenodd"/><path d="M1138.5 562.5C1138.5 493.464 1197.37 437.5 1270 437.5 1342.63 437.5 1401.5 493.464 1401.5 562.5 1401.5 631.536 1342.63 687.5 1270 687.5 1197.37 687.5 1138.5 631.536 1138.5 562.5Z" stroke="#004880" stroke-width="55" stroke-miterlimit="8" fill="none" fill-rule="evenodd"/><path d="M2419.5 1127.5C2587.95 1127.5 2724.5 1189.96 2724.5 1267" stroke="#156082" stroke-width="73.3333" stroke-miterlimit="8" fill="none" fill-rule="evenodd"/><path d="M296 0C459.477-1.88424e-14 592 62.4565 592 139.5" stroke="#156082" stroke-width="55" stroke-miterlimit="8" fill="none" fill-rule="evenodd" transform="matrix(-1 0 0 1 2177.5 1126.5)"/></g></svg>